<svg version="1.2" xmlns="http://www.w3.org/2000/svg" viewBox="0 0 182 122" width="182" height="122"><style>.a{fill:#0f83c4}.b{fill:#0f67ae}.c{fill:#0fa4dd}</style><path fill-rule="evenodd" class="a" d="m36.4 33.4c20-44.2 89.2-44.2 109.2 0 13.8 3.8 25 13.4 31.1 26.8 6.3 13.7 6.7 30.7-1.5 43.8q-0.7 1-1.4 2l-8.8-8.7c5.9-9.6 5.2-22.1 0.7-32-4.6-10-12.8-17.3-23.4-20.2l-5.4-1.5-2.4-5.2c-15.7-34.7-71.3-34.7-87 0l-2.4 5.2-5.4 1.5c-10.6 2.9-18.8 10.2-23.4 20.2-4.6 9.9-5.2 22.7 0.8 32.2 5.5 8.7 14.7 12.2 24.7 12.2h14.5l12.2 12.2h-26.7c-14.2 0-27.3-5.6-35-17.9-8.2-13.1-7.8-30.1-1.5-43.8 6.1-13.4 17.3-23 31.1-26.8zm128.7 81.2c-7.1 4.9-15.7 7.3-24.9 7.3h-2.5l-12.1-12.2h14.6c5.8 0 11.4-1.2 16.1-3.9zm-44.7 7.3h-34.6l-12.1-12.1h34.6z"/><path class="b" d="m85.8 121.9l-12.2-12.2h12.9l12.1 12.2z"/><path class="b" d="m140.2 121.9h-2.5l-12.1-12.2h12.8l11.3 11.3q-4.6 0.9-9.5 0.9z"/><path class="b" d="m178.3 97.7q-1.3 3.2-3.1 6.3-0.7 1-1.4 2l-8.8-8.7c1.8-2.9 3-6.1 3.6-9.3z"/><path fill-rule="evenodd" class="c" d="m75.1 121.9l-28.6-28.6q-1.8 0.5-3.7 0.5c-7.2 0-13-5.8-13-12.9 0-7.2 5.8-13 13-13 7.1 0 12.9 5.8 12.9 13q0 1.9-0.5 3.7l37.2 37.3zm-27.4-41c0-2.8-2.2-5-4.9-5-2.7 0-5 2.2-5 5 0 2.7 2.3 4.9 5 4.9 2.7 0 4.9-2.2 4.9-4.9z"/><path fill-rule="evenodd" class="c" d="m140.2 121.9h-13.1l-53.8-53.8q-1.7 0.6-3.7 0.6c-7.1 0-12.9-5.8-12.9-12.9 0-7.2 5.8-13 12.9-13 7.2 0 13 5.8 13 13q-0.1 1.9-0.6 3.7l62.2 62.2q-2 0.2-4 0.2zm-65.6-66.1c0-2.8-2.3-5-5-5-2.7 0-4.9 2.2-4.9 5 0 2.7 2.2 4.9 4.9 4.9 2.7 0 5-2.2 5-4.9z"/><path fill-rule="evenodd" class="c" d="m175.2 104q-2.8 4.4-6.4 7.6l-24.5-24.5q-1.8 0.6-3.8 0.6c-7.1 0-12.9-5.8-12.9-13 0-7.1 5.8-12.9 12.9-12.9 7.2 0 13 5.8 13 12.9q0 2-0.6 3.8l23.5 23.4q-0.6 1.1-1.2 2.1zm-29.7-29.3c0-2.7-2.2-4.9-5-4.9-2.7 0-4.9 2.2-4.9 4.9 0 2.8 2.2 5 4.9 5 2.8 0 5-2.2 5-5z"/></svg>